# xmcd
#
# Track frame offsets: 
#        183
#        6710
#        21730
#        39210
#        57625
#        72265
#        87840
#
# Disc length: 1409 seconds
#
# Revision: 1
# Processed by: cddbd v1.5.2PL0 Copyright (c) Steve Scherf et al.
# Submitted via: ExactAudioCopy v1.0b1
#
DISCID=60057f07
DTITLE=Lightnin' Hopkins - The Lost Texas Tapes Vol. 2
DYEAR=1990
DGENRE=Blues
TTITLE0=I Got A Letter
TTITLE1=Gonna Move Off This Street
TTITLE2=Help Yourself (Christmastime)
TTITLE3=This Time We'Re Gonna Try
TTITLE4=Let's Work Awhile
TTITLE5=The Jet
TTITLE6=How Can You Love Me And Another Man Too
EXTD=
EXTT0=
EXTT1=
EXTT2=
EXTT3=
EXTT4=
EXTT5=
EXTT6=
PLAYORDER=
